<svg width="246" height="146" viewBox="0 0 246 146" fill="none" xmlns="http://www.w3.org/2000/svg">
<rect x="0.5" y="0.5" width="245" height="145" rx="10" fill="#F5F8FF"/>
<g clip-path="url(#clip0_1_4085)">
<path d="M86.5 70.9352V67.382H104.482V70.9352H86.5ZM86.6758 62.4255C87.7629 61.8916 88.739 61.3009 89.5995 60.6489C90.4599 59.9969 91.2186 59.2928 91.8709 58.5416C92.5093 57.7997 92.9997 57.0107 93.3513 56.1649C93.6982 55.3191 93.8925 54.4308 93.9388 53.5H98.0051C97.9774 54.1237 97.9126 54.719 97.8108 55.3002C97.7091 55.8767 97.5657 56.4342 97.376 56.9681C98.0283 57.3509 98.6574 57.743 99.2681 58.1352C99.8787 58.5274 100.448 58.929 100.984 59.3448C101.507 59.789 102.048 60.2709 102.613 60.7906C103.177 61.3104 103.76 61.8774 104.352 62.5011L101.785 65.4778C101.276 64.9014 100.758 64.3533 100.221 63.8335C99.6844 63.3138 99.1339 62.8177 98.5695 62.3452C98.0468 61.9766 97.5379 61.6175 97.0383 61.2773C96.5387 60.9371 96.0344 60.6205 95.5255 60.3229L95.2665 60.6583C94.8455 61.1781 94.3968 61.6695 93.9203 62.1373C93.4438 62.605 92.9349 63.035 92.3983 63.4366C91.8339 63.8666 91.2556 64.2541 90.6681 64.6037C90.0806 64.9534 89.4838 65.2652 88.8732 65.5487L86.6758 62.4255Z" fill="#0059FF"/>
<path d="M110.015 54.464V67.0419H113.16C113.452 67.0419 113.739 67.0372 114.03 67.023C114.321 67.0088 114.608 66.9805 114.9 66.9379C115.191 66.9238 115.455 66.8954 115.695 66.8529C115.936 66.8104 116.163 66.7537 116.366 66.6828V69.8107C116.172 69.9241 115.954 70.0092 115.714 70.0753C115.473 70.1368 115.205 70.184 114.918 70.2124C114.599 70.2549 114.289 70.2832 113.988 70.2974C113.683 70.3116 113.382 70.3163 113.077 70.3163H106.184V54.464H110.015ZM123.939 59.8316V63.4887C123.856 63.4887 123.768 63.4887 123.671 63.4982C123.574 63.5076 123.472 63.5171 123.361 63.5312C123.25 63.5312 123.139 63.5407 123.028 63.5501C122.917 63.5643 122.801 63.569 122.676 63.569C122.44 63.6116 122.218 63.6541 122.005 63.6966C121.793 63.7391 121.589 63.7817 121.395 63.8242V71.1999H117.564V54.1899H121.395V60.2143C121.589 60.1576 121.793 60.1056 122.005 60.0536C122.218 60.0064 122.449 59.9591 122.699 59.9166C122.824 59.9166 122.944 59.9119 123.06 59.8977C123.176 59.8835 123.282 59.8788 123.379 59.8788C123.49 59.8646 123.588 59.8552 123.68 59.8457C123.768 59.841 123.856 59.8363 123.939 59.8363V59.8316Z" fill="#1D1D1B"/>
<path d="M131.234 54.1992C131.586 54.2748 131.928 54.3882 132.257 54.5252C132.562 54.6953 132.844 54.8985 133.103 55.1395C133.367 55.3804 133.612 55.6592 133.848 55.9852C134.056 56.3254 134.251 56.7081 134.426 57.1381C134.607 57.5681 134.759 58.0359 134.88 58.5414C134.991 59.0754 135.079 59.6613 135.139 60.2944C135.199 60.9276 135.231 61.6127 135.231 62.345C135.231 63.0774 135.199 63.8051 135.139 64.4477C135.079 65.0903 134.991 65.662 134.88 66.1723C134.755 66.7062 134.602 67.1882 134.426 67.6087C134.246 68.0292 134.052 68.4072 133.848 68.7285C133.612 69.0687 133.367 69.3569 133.103 69.5932C132.84 69.8341 132.557 70.0231 132.257 70.1649C131.928 70.3208 131.586 70.4342 131.234 70.5051C130.883 70.576 130.513 70.609 130.129 70.609C129.717 70.609 129.333 70.576 128.981 70.5051C128.63 70.4342 128.301 70.3208 128.001 70.1649C127.668 70.0231 127.372 69.8341 127.099 69.5932C126.83 69.3522 126.59 69.064 126.386 68.7285C126.15 68.4025 125.951 68.0292 125.785 67.6087C125.618 67.1882 125.479 66.7062 125.373 66.1723C125.248 65.6667 125.16 65.0903 125.105 64.4477C125.049 63.8051 125.021 63.1058 125.021 62.345C125.021 61.5843 125.049 60.9276 125.105 60.2944C125.16 59.6613 125.248 59.0754 125.373 58.5414C125.484 58.0359 125.623 57.5681 125.785 57.1381C125.951 56.7081 126.15 56.3254 126.386 55.9852C126.594 55.6592 126.83 55.3804 127.099 55.1395C127.367 54.8985 127.668 54.6953 128.001 54.5252C128.306 54.3835 128.63 54.2748 128.981 54.1992C129.333 54.1236 129.717 54.0811 130.129 54.0811C130.513 54.0811 130.883 54.1189 131.234 54.1992ZM129.805 57.6248C129.703 57.6579 129.611 57.7004 129.527 57.7429C129.416 57.8138 129.319 57.9036 129.236 58.0075C129.153 58.1115 129.079 58.2485 129.009 58.4186C128.926 58.5887 128.861 58.7966 128.815 59.0423C128.769 59.288 128.722 59.562 128.681 59.855C128.625 60.181 128.588 60.5496 128.565 60.9654C128.547 61.3812 128.533 61.8442 128.533 62.3498C128.533 62.8837 128.542 63.3609 128.565 63.7767C128.584 64.1925 128.625 64.5469 128.681 64.8446C128.722 65.1706 128.769 65.4494 128.815 65.6903C128.861 65.9313 128.931 66.1345 129.009 66.3046C129.079 66.4747 129.153 66.6164 129.236 66.7251C129.319 66.8385 129.416 66.9141 129.527 66.9566C129.611 67.0275 129.703 67.0748 129.805 67.0937C129.907 67.1126 130.013 67.1267 130.124 67.1267C130.207 67.1267 130.295 67.1173 130.392 67.0937C130.49 67.0748 130.591 67.0275 130.702 66.9566C130.786 66.9141 130.874 66.8385 130.961 66.7251C131.049 66.6117 131.137 66.47 131.22 66.3046C131.276 66.1345 131.336 65.9313 131.396 65.6903C131.456 65.4494 131.517 65.1706 131.572 64.8446C131.614 64.5469 131.646 64.1925 131.674 63.7767C131.702 63.3609 131.715 62.8837 131.715 62.3498C131.715 61.8442 131.702 61.3812 131.674 60.9654C131.646 60.5496 131.614 60.181 131.572 59.855C131.517 59.5573 131.456 59.288 131.396 59.0423C131.336 58.7966 131.276 58.5887 131.22 58.4186C131.137 58.2485 131.049 58.1115 130.961 58.0075C130.874 57.9036 130.786 57.8138 130.702 57.7429C130.591 57.7004 130.49 57.6626 130.392 57.6248C130.295 57.5917 130.207 57.5728 130.124 57.5728C130.013 57.5728 129.907 57.5917 129.805 57.6248ZM136.809 71.2044V54.1897H140.639V71.2044H136.809Z" fill="#1D1D1B"/>
<path d="M143.845 57.5305H142.916V54.36H152.871V57.5305H151.714V67.1269H152.871V70.2974H142.916V67.1269H143.845V57.5305ZM148.397 67.1269V57.5305H147.158V67.1269H148.397ZM155.124 63.5974C155.013 63.6399 154.888 63.6683 154.74 63.6824C154.596 63.6966 154.435 63.7013 154.254 63.7013C154.046 63.7155 153.842 63.7202 153.643 63.7202H152.741V60.3371H155.119V54.1899H158.741V71.2282H155.119V63.5974H155.124Z" fill="#1D1D1B"/>
<path d="M87.7631 77.2525H86.9351V74.2522H95.6321V77.2525H94.7856V81.2263H95.6321V84.2219H86.9351V81.2263H87.7631V77.2525ZM101.156 92.089V89.1123H88.2165V85.5591H104.958V92.089H101.156ZM91.8295 81.2263V77.2525H90.7192V81.2263H91.8295ZM101.591 80.938C101.401 80.9806 101.207 81.0136 101.003 81.0373C100.8 81.0609 100.591 81.0703 100.374 81.0703V84.7794H97.0015V74.186H100.374V77.5833H101.591V74.186H104.963V84.7794H101.591V80.938Z" fill="#0059FF"/>
<path d="M119.035 83.5318C119.419 83.5318 119.794 83.5318 120.155 83.5223C120.516 83.5176 120.858 83.4987 121.191 83.4704C121.497 83.4704 121.788 83.4515 122.07 83.4184C122.352 83.3853 122.621 83.3428 122.866 83.3003V86.3243C122.672 86.3951 122.45 86.4566 122.195 86.5038C121.941 86.5511 121.654 86.5841 121.335 86.5983C121.002 86.6408 120.655 86.6692 120.289 86.6834C119.924 86.6975 119.549 86.7023 119.16 86.7023H116.903V88.6489H123.588V91.8194H106.476V88.6489H113.16V86.7023H107.489V75.0552H122.551V78.2256H111.005V79.284H122.343V82.4545H111.005V83.5318H119.035Z" fill="#1D1D1B"/>
<path d="M125.47 81.4812H131.285V78.4997H125.572V75.2253H134.801V84.6516H128.986V87.8835H135.38V91.1579H125.466V81.4764L125.47 81.4812ZM136.851 92.0698V75.0552H140.681V92.0698H136.851Z" fill="#1D1D1B"/>
<path d="M150.382 78.741V77.2007C147.325 77.5503 144.877 80.0026 144.47 83.1069H145.983C146.367 80.8436 148.148 79.0671 150.382 78.741Z" fill="#0059FF"/>
<path d="M156.276 83.1113H157.789C157.382 80.007 154.934 77.5547 151.876 77.2051V78.7454C154.111 79.0762 155.892 80.8528 156.276 83.1113Z" fill="#0059FF"/>
<path d="M145.937 84.6377H144.433C144.715 87.8838 147.218 90.4872 150.378 90.8463V89.306C148.046 88.9611 146.205 87.038 145.937 84.6377Z" fill="#0059FF"/>
<path d="M151.876 89.306V90.8463C155.036 90.4872 157.539 87.8838 157.821 84.6377H156.318C156.049 87.0427 154.208 88.9658 151.876 89.306Z" fill="#0059FF"/>
<path d="M151.132 80.9854C149.485 80.9854 148.143 82.3556 148.143 84.0377C148.143 85.7198 149.485 87.09 151.132 87.09C152.778 87.09 154.12 85.7198 154.12 84.0377C154.12 82.3556 152.778 80.9854 151.132 80.9854ZM151.132 85.5591C150.308 85.5591 149.642 84.874 149.642 84.0377C149.642 83.2014 150.313 82.5162 151.132 82.5162C151.95 82.5162 152.621 83.2014 152.621 84.0377C152.621 84.874 151.95 85.5591 151.132 85.5591Z" fill="#0059FF"/>
<path d="M151.876 77.2053V76.3406C151.876 75.9201 151.543 75.5752 151.127 75.5752C150.711 75.5752 150.377 75.9154 150.377 76.3406V77.2053C150.623 77.177 150.872 77.1628 151.127 77.1628C151.381 77.1628 151.631 77.177 151.876 77.2053Z" fill="#0059FF"/>
<path d="M151.132 78.6888C151.386 78.6888 151.636 78.7077 151.881 78.7455V77.2051C151.636 77.1768 151.386 77.1626 151.132 77.1626C150.877 77.1626 150.628 77.1768 150.382 77.2051V78.7455C150.628 78.7077 150.877 78.6888 151.132 78.6888Z" fill="#0059FF"/>
<path d="M150.382 90.8462V91.7345C150.382 92.155 150.715 92.4999 151.132 92.4999C151.548 92.4999 151.881 92.1597 151.881 91.7345V90.8462C151.636 90.8745 151.386 90.8887 151.132 90.8887C150.877 90.8887 150.628 90.8745 150.382 90.8462Z" fill="#0059FF"/>
<path d="M151.132 89.3629C150.877 89.3629 150.628 89.344 150.382 89.3062V90.8465C150.628 90.8748 150.877 90.889 151.132 90.889C151.386 90.889 151.636 90.8748 151.881 90.8465V89.3062C151.636 89.344 151.386 89.3629 151.132 89.3629Z" fill="#0059FF"/>
<path d="M158.755 83.1117H157.793C157.83 83.4093 157.853 83.7165 157.853 84.0283C157.853 84.2362 157.844 84.4394 157.825 84.6378H158.755C159.167 84.6378 159.505 84.2976 159.505 83.8724C159.505 83.4471 159.172 83.1069 158.755 83.1069V83.1117Z" fill="#0059FF"/>
<path d="M157.789 83.1113H156.276C156.327 83.409 156.355 83.7161 156.355 84.028C156.355 84.2359 156.341 84.439 156.318 84.6375H157.821C157.839 84.4343 157.849 84.2311 157.849 84.028C157.849 83.7161 157.826 83.4137 157.789 83.1113Z" fill="#0059FF"/>
<path d="M144.47 83.1113H143.605C143.193 83.1113 142.855 83.4515 142.855 83.8768C142.855 84.302 143.189 84.6422 143.605 84.6422H144.438C144.419 84.4391 144.41 84.2359 144.41 84.0327C144.41 83.7209 144.433 83.4185 144.47 83.1161V83.1113Z" fill="#0059FF"/>
<path d="M145.904 84.0236C145.904 83.7117 145.932 83.4046 145.983 83.1069H144.47C144.433 83.4046 144.41 83.7117 144.41 84.0236C144.41 84.2315 144.419 84.4347 144.437 84.6331H145.941C145.918 84.4299 145.904 84.2268 145.904 84.0236Z" fill="#0059FF"/>
<path d="M151.414 86.3248C152.65 86.3248 153.653 85.3009 153.653 84.0379C153.653 82.7749 152.65 81.751 151.414 81.751C150.177 81.751 149.175 82.7749 149.175 84.0379C149.175 85.3009 150.177 86.3248 151.414 86.3248Z" fill="#0059FF"/>
</g>
<defs>
<clipPath id="clip0_1_4085">
<rect width="73" height="39" fill="white" transform="translate(86.5 53.5)"/>
</clipPath>
</defs>
</svg>
