<svg width="100%" height="100%" viewBox="0 0 27 20" fill="none" xmlns="http://www.w3.org/2000/svg">
<path fill-rule="evenodd" clip-rule="evenodd" d="M3.14004 2.6V17.4H23.6543V2.6H3.14004ZM1.54004 0C0.987754 0 0.540039 0.447716 0.540039 1V19C0.540039 19.5523 0.987754 20 1.54004 20H25.2543C25.8066 20 26.2543 19.5523 26.2543 19V1C26.2543 0.447715 25.8066 0 25.2543 0H1.54004Z" fill="#666666"/>
<path fill-rule="evenodd" clip-rule="evenodd" d="M8.93887 7.16799C9.3985 7.71955 9.32398 8.53928 8.77242 8.99892L7.57085 10.0002L8.77242 11.0015C9.32398 11.4612 9.3985 12.2809 8.93887 12.8325C8.47924 13.384 7.6595 13.4585 7.10794 12.9989L4.80013 11.0757C4.12847 10.516 4.12847 9.48443 4.80013 8.92472L7.10794 7.00154C7.6595 6.54191 8.47924 6.61643 8.93887 7.16799Z" />
<path fill-rule="evenodd" clip-rule="evenodd" d="M17.941 7.16799C17.4814 7.71955 17.5559 8.53928 18.1075 8.99892L19.309 10.0002L18.1075 11.0015C17.5559 11.4612 17.4814 12.2809 17.941 12.8325C18.4006 13.384 19.2204 13.4585 19.7719 12.9989L22.0798 11.0757C22.7514 10.516 22.7514 9.48443 22.0798 8.92472L19.7719 7.00154C19.2204 6.54191 18.4006 6.61643 17.941 7.16799Z" />
</svg>
