<svg width="34" height="34" viewBox="0 0 34 34" fill="none" xmlns="http://www.w3.org/2000/svg">
<mask id="mask0_1_4210" style="mask-type:alpha" maskUnits="userSpaceOnUse" x="0" y="0" width="34" height="34">
<circle cx="17" cy="17" r="17" fill="#D9D9D9"/>
</mask>
<g mask="url(#mask0_1_4210)">
<rect x="-12" width="57.0714" height="34" rx="10" fill="white"/>
<g clip-path="url(#clip0_1_4210)">
<path d="M8.0332 16.5157V15.6826H12.2219V16.5157H8.0332ZM8.07415 14.5204C8.3274 14.3952 8.55477 14.2567 8.75521 14.1038C8.95565 13.9509 9.13238 13.7858 9.28433 13.6096C9.43304 13.4357 9.54727 13.2507 9.62917 13.0524C9.70999 12.854 9.75525 12.6458 9.76603 12.4275H10.7133C10.7068 12.5737 10.6917 12.7133 10.668 12.8496C10.6443 12.9848 10.6109 13.1155 10.5667 13.2407C10.7186 13.3305 10.8652 13.4224 11.0075 13.5144C11.1497 13.6063 11.2822 13.7005 11.4073 13.798C11.529 13.9021 11.6551 14.0151 11.7866 14.137C11.918 14.2589 12.0538 14.3918 12.1918 14.5381L11.5937 15.2361C11.4751 15.1009 11.3544 14.9724 11.2294 14.8505C11.1044 14.7287 10.9762 14.6123 10.8447 14.5015C10.723 14.4151 10.6044 14.3309 10.488 14.2511C10.3717 14.1714 10.2542 14.0971 10.1357 14.0273L10.0753 14.106C9.97724 14.2279 9.87271 14.3431 9.76172 14.4528C9.65072 14.5625 9.53218 14.6633 9.40718 14.7575C9.27571 14.8583 9.141 14.9491 9.00415 15.0311C8.86729 15.1131 8.72827 15.1862 8.58603 15.2527L8.07415 14.5204Z" fill="#0059FF"/>
<path d="M13.5104 12.6536V15.6029H14.2432C14.3111 15.6029 14.3779 15.6018 14.4458 15.5985C14.5137 15.5952 14.5805 15.5885 14.6484 15.5785C14.7163 15.5752 14.7777 15.5686 14.8338 15.5586C14.8898 15.5486 14.9426 15.5353 14.99 15.5187V16.2522C14.9448 16.2788 14.8941 16.2987 14.8381 16.3142C14.782 16.3286 14.7195 16.3397 14.6527 16.3463C14.5784 16.3563 14.5062 16.363 14.4361 16.3663C14.365 16.3696 14.295 16.3707 14.2238 16.3707H12.6182V12.6536H13.5104ZM16.7541 13.9122V14.7698C16.7347 14.7698 16.7142 14.7698 16.6916 14.772C16.669 14.7742 16.6453 14.7764 16.6194 14.7797C16.5935 14.7797 16.5677 14.7819 16.5418 14.7842C16.5159 14.7875 16.489 14.7886 16.4599 14.7886C16.4049 14.7986 16.3532 14.8085 16.3036 14.8185C16.2541 14.8285 16.2067 14.8384 16.1614 14.8484V16.5779H15.2691V12.5894H16.1614V14.002C16.2067 13.9887 16.2541 13.9765 16.3036 13.9643C16.3532 13.9532 16.4071 13.9421 16.4653 13.9322C16.4944 13.9322 16.5224 13.9311 16.5493 13.9277C16.5763 13.9244 16.6011 13.9233 16.6237 13.9233C16.6496 13.92 16.6722 13.9178 16.6937 13.9155C16.7142 13.9144 16.7347 13.9133 16.7541 13.9133V13.9122Z" fill="#1D1D1B"/>
<path d="M18.4541 12.5914C18.536 12.6091 18.6157 12.6357 18.6922 12.6679C18.7634 12.7078 18.8291 12.7554 18.8895 12.8119C18.9509 12.8684 19.008 12.9338 19.0629 13.0102C19.1114 13.09 19.1567 13.1797 19.1977 13.2805C19.2397 13.3814 19.2752 13.4911 19.3033 13.6096C19.3291 13.7348 19.3496 13.8722 19.3636 14.0206C19.3776 14.1691 19.3852 14.3298 19.3852 14.5015C19.3852 14.6732 19.3776 14.8438 19.3636 14.9945C19.3496 15.1452 19.3291 15.2792 19.3033 15.3989C19.2742 15.5241 19.2386 15.6371 19.1977 15.7357C19.1556 15.8343 19.1104 15.923 19.0629 15.9983C19.008 16.0781 18.9509 16.1456 18.8895 16.201C18.828 16.2575 18.7623 16.3019 18.6922 16.3351C18.6157 16.3717 18.536 16.3983 18.4541 16.4149C18.3722 16.4315 18.286 16.4392 18.1965 16.4392C18.1006 16.4392 18.0112 16.4315 17.9293 16.4149C17.8474 16.3983 17.7709 16.3717 17.7008 16.3351C17.6232 16.3019 17.5543 16.2575 17.4907 16.201C17.4282 16.1445 17.3722 16.077 17.3247 15.9983C17.2698 15.9218 17.2234 15.8343 17.1846 15.7357C17.1459 15.6371 17.1135 15.5241 17.0887 15.3989C17.0596 15.2804 17.0392 15.1452 17.0262 14.9945C17.0133 14.8438 17.0068 14.6799 17.0068 14.5015C17.0068 14.3231 17.0133 14.1691 17.0262 14.0206C17.0392 13.8722 17.0596 13.7348 17.0887 13.6096C17.1146 13.4911 17.1469 13.3814 17.1846 13.2805C17.2234 13.1797 17.2698 13.09 17.3247 13.0102C17.3732 12.9338 17.4282 12.8684 17.4907 12.8119C17.5532 12.7554 17.6232 12.7078 17.7008 12.6679C17.772 12.6346 17.8474 12.6091 17.9293 12.5914C18.0112 12.5737 18.1006 12.5637 18.1965 12.5637C18.286 12.5637 18.3722 12.5726 18.4541 12.5914ZM18.1211 13.3947C18.0974 13.4024 18.0758 13.4124 18.0564 13.4224C18.0306 13.439 18.008 13.46 17.9886 13.4844C17.9692 13.5088 17.9519 13.5409 17.9358 13.5808C17.9164 13.6207 17.9013 13.6694 17.8905 13.727C17.8797 13.7847 17.8689 13.8489 17.8592 13.9176C17.8463 13.9941 17.8377 14.0805 17.8323 14.178C17.828 14.2755 17.8248 14.384 17.8248 14.5026C17.8248 14.6278 17.8269 14.7397 17.8323 14.8372C17.8366 14.9347 17.8463 15.0178 17.8592 15.0876C17.8689 15.164 17.8797 15.2294 17.8905 15.2859C17.9013 15.3424 17.9174 15.39 17.9358 15.4299C17.9519 15.4698 17.9692 15.5031 17.9886 15.5285C18.008 15.5551 18.0306 15.5728 18.0564 15.5828C18.0758 15.5994 18.0974 15.6105 18.1211 15.615C18.1448 15.6194 18.1696 15.6227 18.1955 15.6227C18.2149 15.6227 18.2353 15.6205 18.258 15.615C18.2806 15.6105 18.3043 15.5994 18.3302 15.5828C18.3496 15.5728 18.37 15.5551 18.3905 15.5285C18.411 15.5019 18.4315 15.4687 18.4509 15.4299C18.4638 15.39 18.4778 15.3424 18.4918 15.2859C18.5058 15.2294 18.5198 15.164 18.5328 15.0876C18.5425 15.0178 18.55 14.9347 18.5565 14.8372C18.5629 14.7397 18.5662 14.6278 18.5662 14.5026C18.5662 14.384 18.5629 14.2755 18.5565 14.178C18.55 14.0805 18.5425 13.9941 18.5328 13.9176C18.5198 13.8478 18.5058 13.7847 18.4918 13.727C18.4778 13.6694 18.4638 13.6207 18.4509 13.5808C18.4315 13.5409 18.411 13.5088 18.3905 13.4844C18.37 13.46 18.3496 13.439 18.3302 13.4224C18.3043 13.4124 18.2806 13.4035 18.258 13.3947C18.2353 13.3869 18.2149 13.3825 18.1955 13.3825C18.1696 13.3825 18.1448 13.3869 18.1211 13.3947ZM19.7526 16.5788V12.5892H20.6449V16.5788H19.7526Z" fill="#1D1D1B"/>
<path d="M21.3914 13.3727H21.1748V12.6292H23.4939V13.3727H23.2245V15.6229H23.4939V16.3663H21.1748V15.6229H21.3914V13.3727ZM22.4518 15.6229V13.3727H22.163V15.6229H22.4518ZM24.0187 14.7952C23.9928 14.8052 23.9637 14.8119 23.9292 14.8152C23.8958 14.8185 23.8581 14.8196 23.8161 14.8196C23.7676 14.8229 23.7202 14.824 23.6738 14.824H23.4637V14.0308H24.0176V12.5894H24.8614V16.5845H24.0176V14.7952H24.0187Z" fill="#1D1D1B"/>
<path d="M8.32766 17.9971H8.13477V17.2936H10.1607V17.9971H9.9635V18.9289H10.1607V19.6313H8.13477V18.9289H8.32766V17.9971ZM11.4474 21.476V20.778H8.43327V19.9449H12.3332V21.476H11.4474ZM9.2749 18.9289V17.9971H9.01626V18.9289H9.2749ZM11.5487 18.8613C11.5045 18.8713 11.4592 18.879 11.4118 18.8846C11.3644 18.8901 11.3159 18.8923 11.2653 18.8923V19.762H10.4797V17.2781H11.2653V18.0747H11.5487V17.2781H12.3343V19.762H11.5487V18.8613Z" fill="#0059FF"/>
<path d="M15.6123 19.4696C15.7017 19.4696 15.789 19.4696 15.8731 19.4673C15.9571 19.4662 16.0369 19.4618 16.1145 19.4552C16.1856 19.4552 16.2535 19.4507 16.3192 19.443C16.3849 19.4352 16.4474 19.4252 16.5046 19.4153V20.1243C16.4593 20.141 16.4076 20.1554 16.3483 20.1664C16.289 20.1775 16.2222 20.1853 16.1479 20.1886C16.0703 20.1986 15.9895 20.2052 15.9043 20.2085C15.8192 20.2119 15.7319 20.213 15.6414 20.213H15.1155V20.6694H16.6727V21.4129H12.6865V20.6694H14.2437V20.213H12.9225V17.4819H16.4313V18.2254H13.7415V18.4735H16.3828V19.2169H13.7415V19.4696H15.6123Z" fill="#1D1D1B"/>
<path d="M17.1114 18.9887H18.466V18.2896H17.1351V17.5218H19.285V19.7321H17.9304V20.49H19.4197V21.2577H17.1104V18.9876L17.1114 18.9887ZM19.7624 21.4716V17.4819H20.6547V21.4716H19.7624Z" fill="#1D1D1B"/>
<path d="M22.9143 18.346V17.9849C22.202 18.0668 21.6319 18.6419 21.5371 19.3698H21.8895C21.9789 18.8391 22.3938 18.4225 22.9143 18.346Z" fill="#0059FF"/>
<path d="M24.2875 19.371H24.6399C24.5451 18.6431 23.975 18.0681 23.2627 17.9861V18.3473C23.7832 18.4248 24.1981 18.8414 24.2875 19.371Z" fill="#0059FF"/>
<path d="M21.8785 19.7288H21.5283C21.5941 20.4899 22.1771 21.1004 22.9131 21.1846V20.8234C22.3699 20.7425 21.9411 20.2916 21.8785 19.7288Z" fill="#0059FF"/>
<path d="M23.2627 20.8234V21.1846C23.9987 21.1004 24.5817 20.4899 24.6474 19.7288H24.2972C24.2347 20.2927 23.8058 20.7436 23.2627 20.8234Z" fill="#0059FF"/>
<path d="M23.0887 18.8723C22.7051 18.8723 22.3926 19.1936 22.3926 19.588C22.3926 19.9825 22.7051 20.3038 23.0887 20.3038C23.4724 20.3038 23.7849 19.9825 23.7849 19.588C23.7849 19.1936 23.4724 18.8723 23.0887 18.8723ZM23.0887 19.9448C22.8969 19.9448 22.7417 19.7841 22.7417 19.588C22.7417 19.3919 22.898 19.2313 23.0887 19.2313C23.2795 19.2313 23.4357 19.3919 23.4357 19.588C23.4357 19.7841 23.2795 19.9448 23.0887 19.9448Z" fill="#0059FF"/>
<path d="M23.2622 17.986V17.7832C23.2622 17.6846 23.1846 17.6038 23.0877 17.6038C22.9907 17.6038 22.9131 17.6835 22.9131 17.7832V17.986C22.9702 17.9793 23.0284 17.976 23.0877 17.976C23.1469 17.976 23.2051 17.9793 23.2622 17.986Z" fill="#0059FF"/>
<path d="M23.0886 18.3339C23.1479 18.3339 23.2061 18.3384 23.2632 18.3472V17.986C23.2061 17.9794 23.1479 17.9761 23.0886 17.9761C23.0294 17.9761 22.9712 17.9794 22.9141 17.986V18.3472C22.9712 18.3384 23.0294 18.3339 23.0886 18.3339Z" fill="#0059FF"/>
<path d="M22.9141 21.1846V21.3929C22.9141 21.4915 22.9917 21.5723 23.0886 21.5723C23.1856 21.5723 23.2632 21.4926 23.2632 21.3929V21.1846C23.2061 21.1912 23.1479 21.1945 23.0886 21.1945C23.0294 21.1945 22.9712 21.1912 22.9141 21.1846Z" fill="#0059FF"/>
<path d="M23.0886 20.8368C23.0294 20.8368 22.9712 20.8323 22.9141 20.8235V21.1847C22.9712 21.1913 23.0294 21.1946 23.0886 21.1946C23.1479 21.1946 23.2061 21.1913 23.2632 21.1847V20.8235C23.2061 20.8323 23.1479 20.8368 23.0886 20.8368Z" fill="#0059FF"/>
<path d="M24.8648 19.371H24.6406C24.6492 19.4408 24.6546 19.5128 24.6546 19.5859C24.6546 19.6347 24.6525 19.6823 24.6482 19.7288H24.8648C24.9607 19.7288 25.0393 19.6491 25.0393 19.5494C25.0393 19.4496 24.9618 19.3699 24.8648 19.3699V19.371Z" fill="#0059FF"/>
<path d="M24.6395 19.3708H24.2871C24.299 19.4406 24.3054 19.5127 24.3054 19.5858C24.3054 19.6345 24.3022 19.6822 24.2968 19.7287H24.647C24.6513 19.6811 24.6535 19.6334 24.6535 19.5858C24.6535 19.5127 24.6481 19.4418 24.6395 19.3708Z" fill="#0059FF"/>
<path d="M21.5372 19.3708H21.3357C21.2398 19.3708 21.1611 19.4506 21.1611 19.5503C21.1611 19.65 21.2387 19.7298 21.3357 19.7298H21.5297C21.5254 19.6822 21.5232 19.6345 21.5232 19.5869C21.5232 19.5138 21.5286 19.4429 21.5372 19.372V19.3708Z" fill="#0059FF"/>
<path d="M21.8715 19.5848C21.8715 19.5117 21.878 19.4397 21.8898 19.3699H21.5374C21.5288 19.4397 21.5234 19.5117 21.5234 19.5848C21.5234 19.6336 21.5256 19.6812 21.5299 19.7277H21.8801C21.8747 19.6801 21.8715 19.6325 21.8715 19.5848Z" fill="#0059FF"/>
<path d="M23.1544 20.1242C23.4424 20.1242 23.676 19.8841 23.676 19.588C23.676 19.2918 23.4424 19.0518 23.1544 19.0518C22.8663 19.0518 22.6328 19.2918 22.6328 19.588C22.6328 19.8841 22.8663 20.1242 23.1544 20.1242Z" fill="#0059FF"/>
</g>
</g>
<defs>
<clipPath id="clip0_1_4210">
<rect width="17.005" height="9.14483" fill="white" transform="translate(8.0332 12.4275)"/>
</clipPath>
</defs>
</svg>