<svg
            width="19"
            height="19"
            viewBox="0 0 19 19"
            fill="none"
            xmlns="http://www.w3.org/2000/svg"
          >
            <path
              d="M13.6986 11.7863H12.8645L12.5688 11.5013C13.8359 10.024 14.4905 8.00858 14.1315 5.8665C13.6352 2.933 11.1857 0.590417 8.22937 0.231644C3.76319 -0.317069 0.00441831 3.4395 0.553452 7.90306C0.912436 10.8577 3.25639 13.3058 6.19161 13.8017C8.33495 14.1605 10.3516 13.5063 11.8298 12.24L12.1148 12.5355V13.3691L16.6021 17.8537C17.035 18.2864 17.7424 18.2864 18.1753 17.8537C18.6082 17.4211 18.6082 16.7141 18.1753 16.2815L13.6986 11.7863ZM7.36358 11.7863C4.73456 11.7863 2.61233 9.66527 2.61233 7.03778C2.61233 4.4103 4.73456 2.28931 7.36358 2.28931C9.99261 2.28931 12.1148 4.4103 12.1148 7.03778C12.1148 9.66527 9.99261 11.7863 7.36358 11.7863Z"
              fill="#CCCCCC"
            />
          </svg>