<svg
            width="19"
            height="19"
            viewBox="0 0 19 19"
            fill="none"
            xmlns="http://www.w3.org/2000/svg"
          >
            <path
              d="M13.7181 12.297H12.884L12.5884 12.0121C13.8554 10.5348 14.51 8.51933 14.151 6.37724C13.6548 3.44374 11.2052 1.10116 8.2489 0.742386C3.78272 0.193674 0.0239496 3.95024 0.572983 8.4138C0.931967 11.3684 3.27592 13.8165 6.21114 14.3125C8.35448 14.6712 10.3711 14.017 11.8493 12.7507L12.1344 13.0462V13.8798L16.6217 18.3645C17.0546 18.7971 17.762 18.7971 18.1949 18.3645C18.6278 17.9318 18.6278 17.2249 18.1949 16.7922L13.7181 12.297ZM7.38312 12.297C4.75409 12.297 2.63186 10.176 2.63186 7.54853C2.63186 4.92104 4.75409 2.80006 7.38312 2.80006C10.0121 2.80006 12.1344 4.92104 12.1344 7.54853C12.1344 10.176 10.0121 12.297 7.38312 12.297Z"
              fill="#669BFF"
            />
          </svg>